<?xml version="1.0" encoding="UTF-8" standalone="no"?>
<!-- Created with Inkscape (http://www.inkscape.org/) -->

<svg
   width="568.27515mm"
   height="117.89824mm"
   viewBox="0 0 568.27515 117.89824"
   version="1.1"
   id="svg5"
   inkscape:version="1.2.2 (b0a8486541, 2022-12-01)"
   sodipodi:docname="logo.svg"
   xmlns:inkscape="http://www.inkscape.org/namespaces/inkscape"
   xmlns:sodipodi="http://sodipodi.sourceforge.net/DTD/sodipodi-0.dtd"
   xmlns:xlink="http://www.w3.org/1999/xlink"
   xmlns="http://www.w3.org/2000/svg"
   xmlns:svg="http://www.w3.org/2000/svg">
  <sodipodi:namedview
     id="namedview7"
     pagecolor="#ffffff"
     bordercolor="#666666"
     borderopacity="1.0"
     inkscape:showpageshadow="2"
     inkscape:pageopacity="0.0"
     inkscape:pagecheckerboard="0"
     inkscape:deskcolor="#d1d1d1"
     inkscape:document-units="mm"
     showgrid="false"
     inkscape:zoom="0.5650456"
     inkscape:cx="-40.704679"
     inkscape:cy="140.69661"
     inkscape:window-width="1920"
     inkscape:window-height="1056"
     inkscape:window-x="0"
     inkscape:window-y="0"
     inkscape:window-maximized="1"
     inkscape:current-layer="layer1" />
  <defs
     id="defs2">
    <linearGradient
       inkscape:collect="always"
       id="linearGradient2293">
      <stop
         style="stop-color:#214a78;stop-opacity:1;"
         offset="0"
         id="stop2289" />
      <stop
         style="stop-color:#1b294c;stop-opacity:1;"
         offset="1"
         id="stop2291" />
    </linearGradient>
    <linearGradient
       inkscape:collect="always"
       id="linearGradient1152">
      <stop
         style="stop-color:#214a78;stop-opacity:1;"
         offset="0"
         id="stop1148" />
      <stop
         style="stop-color:#1b294c;stop-opacity:1;"
         offset="1"
         id="stop1150" />
    </linearGradient>
    <linearGradient
       inkscape:collect="always"
       xlink:href="#linearGradient1152"
       id="linearGradient1154"
       x1="52.050991"
       y1="124.0853"
       x2="152.89664"
       y2="212.44824"
       gradientUnits="userSpaceOnUse"
       gradientTransform="translate(-38.01686)" />
    <linearGradient
       inkscape:collect="always"
       xlink:href="#linearGradient2293"
       id="linearGradient2295"
       x1="136.03902"
       y1="167.75467"
       x2="334.81857"
       y2="167.75467"
       gradientUnits="userSpaceOnUse"
       gradientTransform="matrix(2.0763749,0,0,2.0763749,-127.37136,-182.31898)" />
    <linearGradient
       inkscape:collect="always"
       xlink:href="#linearGradient2293"
       id="linearGradient2726"
       gradientUnits="userSpaceOnUse"
       gradientTransform="matrix(2.0763749,0,0,2.0763749,-127.37136,-182.31898)"
       x1="136.03902"
       y1="167.75467"
       x2="334.81857"
       y2="167.75467" />
    <linearGradient
       inkscape:collect="always"
       xlink:href="#linearGradient2293"
       id="linearGradient2728"
       gradientUnits="userSpaceOnUse"
       gradientTransform="matrix(2.0763749,0,0,2.0763749,-127.37136,-182.31898)"
       x1="136.03902"
       y1="167.75467"
       x2="334.81857"
       y2="167.75467" />
    <linearGradient
       inkscape:collect="always"
       xlink:href="#linearGradient2293"
       id="linearGradient2730"
       gradientUnits="userSpaceOnUse"
       gradientTransform="matrix(2.0763749,0,0,2.0763749,-127.37136,-182.31898)"
       x1="136.03902"
       y1="167.75467"
       x2="334.81857"
       y2="167.75467" />
    <linearGradient
       inkscape:collect="always"
       xlink:href="#linearGradient2293"
       id="linearGradient2732"
       gradientUnits="userSpaceOnUse"
       gradientTransform="matrix(2.0763749,0,0,2.0763749,-127.37136,-182.31898)"
       x1="136.03902"
       y1="167.75467"
       x2="334.81857"
       y2="167.75467" />
    <linearGradient
       inkscape:collect="always"
       xlink:href="#linearGradient2293"
       id="linearGradient2734"
       gradientUnits="userSpaceOnUse"
       gradientTransform="matrix(2.0763749,0,0,2.0763749,-127.37136,-182.31898)"
       x1="136.03902"
       y1="167.75467"
       x2="334.81857"
       y2="167.75467" />
    <linearGradient
       inkscape:collect="always"
       xlink:href="#linearGradient2293"
       id="linearGradient2736"
       gradientUnits="userSpaceOnUse"
       gradientTransform="matrix(2.0763749,0,0,2.0763749,-127.37136,-182.31898)"
       x1="136.03902"
       y1="167.75467"
       x2="334.81857"
       y2="167.75467" />
    <linearGradient
       inkscape:collect="always"
       xlink:href="#linearGradient2293"
       id="linearGradient2738"
       gradientUnits="userSpaceOnUse"
       gradientTransform="matrix(2.0763749,0,0,2.0763749,-127.37136,-182.31898)"
       x1="136.03902"
       y1="167.75467"
       x2="334.81857"
       y2="167.75467" />
    <linearGradient
       inkscape:collect="always"
       xlink:href="#linearGradient2293"
       id="linearGradient2740"
       gradientUnits="userSpaceOnUse"
       gradientTransform="matrix(2.0763749,0,0,2.0763749,-127.37136,-182.31898)"
       x1="136.03902"
       y1="167.75467"
       x2="334.81857"
       y2="167.75467" />
    <linearGradient
       inkscape:collect="always"
       xlink:href="#linearGradient2293"
       id="linearGradient2742"
       gradientUnits="userSpaceOnUse"
       gradientTransform="matrix(2.0763749,0,0,2.0763749,-127.37136,-182.31898)"
       x1="136.03902"
       y1="167.75467"
       x2="334.81857"
       y2="167.75467" />
    <linearGradient
       inkscape:collect="always"
       xlink:href="#linearGradient2293"
       id="linearGradient2744"
       gradientUnits="userSpaceOnUse"
       gradientTransform="matrix(2.0763749,0,0,2.0763749,-127.37136,-182.31898)"
       x1="136.03902"
       y1="167.75467"
       x2="334.81857"
       y2="167.75467" />
    <linearGradient
       inkscape:collect="always"
       xlink:href="#linearGradient2293"
       id="linearGradient2746"
       gradientUnits="userSpaceOnUse"
       gradientTransform="matrix(2.0763749,0,0,2.0763749,-127.37136,-182.31898)"
       x1="136.03902"
       y1="167.75467"
       x2="334.81857"
       y2="167.75467" />
    <linearGradient
       inkscape:collect="always"
       xlink:href="#linearGradient2293"
       id="linearGradient2748"
       gradientUnits="userSpaceOnUse"
       gradientTransform="matrix(2.0763749,0,0,2.0763749,-127.37136,-182.31898)"
       x1="136.03902"
       y1="167.75467"
       x2="334.81857"
       y2="167.75467" />
    <linearGradient
       inkscape:collect="always"
       xlink:href="#linearGradient2293"
       id="linearGradient2750"
       gradientUnits="userSpaceOnUse"
       gradientTransform="matrix(2.0763749,0,0,2.0763749,-127.37136,-182.31898)"
       x1="136.03902"
       y1="167.75467"
       x2="334.81857"
       y2="167.75467" />
    <linearGradient
       inkscape:collect="always"
       xlink:href="#linearGradient2293"
       id="linearGradient2752"
       gradientUnits="userSpaceOnUse"
       gradientTransform="matrix(2.0763749,0,0,2.0763749,-127.37136,-182.31898)"
       x1="136.03902"
       y1="167.75467"
       x2="334.81857"
       y2="167.75467" />
  </defs>
  <g
     inkscape:label="Layer 1"
     inkscape:groupmode="layer"
     id="layer1"
     transform="translate(0.43797633,-111.72794)">
    <rect
       style="fill:url(#linearGradient1154);fill-opacity:1;stroke:none;stroke-width:8.09501;stroke-dasharray:none"
       id="rect1071"
       width="120.62469"
       height="117.89824"
       x="-0.43797633"
       y="111.72794"
       ry="21.061777" />
    <path
       id="rect234"
       style="color:#000000;fill:#fcfcfc;fill-opacity:1;-inkscape-stroke:none"
       d="m 29.52273,137.84547 c -4.901095,0 -8.972579,4.07148 -8.972579,8.97258 v 33.75401 c 0,4.9011 4.071484,8.97258 8.972579,8.97258 h 14.732434 v 6.73085 H 26.453667 c -2.003539,0 -3.616317,1.6133 -3.616317,3.61684 0,2.00354 1.612778,3.61632 3.616317,3.61632 H 93.29403 c 2.00354,0 3.61631,-1.61278 3.61631,-3.61632 0,-2.00354 -1.61277,-3.61684 -3.61631,-3.61684 h -17.8015 v -6.73085 h 14.7314 c 4.9011,0 8.97465,-4.07148 8.97465,-8.97258 v -33.75401 c 0,-4.9011 -4.07355,-8.97258 -8.97465,-8.97258 z m 0,8.09563 h 60.7012 c 0.55649,0 0.87902,0.32046 0.87902,0.87695 v 33.75401 c 0,0.55649 -0.32253,0.87902 -0.87902,0.87902 h -60.7012 c -0.556494,0 -0.878499,-0.32253 -0.878499,-0.87902 v -33.75401 c 0,-0.55649 0.322005,-0.87695 0.878499,-0.87695 z" />
    <g
       aria-label="LAT"
       id="text1210"
       style="font-size:19.2361px;line-height:1.25;letter-spacing:0px;fill:#ffffff;stroke-width:0.480904">
      <path
         d="m 46.758835,170.31709 v -12.24115 h 1.748736 v 10.49242 h 5.246209 v 1.74873 z"
         style="font-weight:500;font-family:scientifica;-inkscape-font-specification:'scientifica Medium'"
         id="path2324" />
      <path
         d="m 55.502526,170.31709 v -10.49241 h 1.748737 v 3.49747 h 3.497472 v -3.49747 h 1.748736 v 10.49241 h -1.748736 v -5.24621 h -3.497472 v 5.24621 z m 1.748737,-10.49241 v -1.74874 h 3.497472 v 1.74874 z"
         style="font-weight:500;font-family:scientifica;-inkscape-font-specification:'scientifica Medium'"
         id="path2326" />
      <path
         d="m 64.246218,159.82468 v -1.74874 h 8.743681 v 1.74874 h -3.497472 v 10.49241 H 67.74369 v -10.49241 z"
         style="font-weight:500;font-family:scientifica;-inkscape-font-specification:'scientifica Medium'"
         id="path2328" />
    </g>
    <g
       aria-label="LabAdminTools"
       id="text399"
       style="font-size:70.9397px;line-height:1.25;letter-spacing:0px;fill:url(#linearGradient2752);stroke-width:1.7735">
      <path
         d="m 155.09666,188.57436 v -45.14345 h 6.44907 v 38.69438 h 19.34719 v 6.44907 z"
         style="font-family:scientifica;-inkscape-font-specification:scientifica;fill:url(#linearGradient2726)"
         id="path2297" />
      <path
         d="M 187.34202,182.12529 V 162.7781 h 6.44906 v 19.34719 z m 6.44906,0 h 6.44906 v 6.44907 h -6.44906 z m 0,-19.34719 v -6.44906 h 19.34719 v 32.24532 h -6.44906 v -6.44907 h -6.44907 v -6.44906 h 6.44907 V 162.7781 Z"
         style="font-family:scientifica;-inkscape-font-specification:scientifica;fill:url(#linearGradient2728)"
         id="path2299" />
      <path
         d="m 219.58737,188.57436 v -45.14345 h 6.44907 v 12.89813 h 12.89812 v 6.44906 h -12.89812 v 19.34719 h 12.89812 v 6.44907 z m 25.79626,-6.44907 h -6.44907 V 162.7781 h 6.44907 z"
         style="font-family:scientifica;-inkscape-font-specification:scientifica;fill:url(#linearGradient2730)"
         id="path2301" />
      <path
         d="m 251.83273,188.57436 v -38.69438 h 6.44906 v 12.89812 h 12.89813 v -12.89812 h 6.44906 v 38.69438 h -6.44906 v -19.34719 h -12.89813 v 19.34719 z m 6.44906,-38.69438 v -6.44907 h 12.89813 v 6.44907 z"
         style="font-family:scientifica;-inkscape-font-specification:scientifica;fill:url(#linearGradient2732)"
         id="path2303" />
      <path
         d="M 284.07808,182.12529 V 162.7781 h 6.44906 v 19.34719 z m 25.79625,6.44907 h -19.34719 v -6.44907 h 12.89813 V 162.7781 h -12.89813 v -6.44906 h 12.89813 v -12.89813 h 6.44906 z"
         style="font-family:scientifica;-inkscape-font-specification:scientifica;fill:url(#linearGradient2734)"
         id="path2305" />
      <path
         d="m 316.32344,188.57436 v -32.24532 h 6.44906 v 6.44906 h 12.89813 v -6.44906 h 6.44906 v 32.24532 h -6.44906 V 169.22717 H 322.7725 v 19.34719 z"
         style="font-family:scientifica;-inkscape-font-specification:scientifica;fill:url(#linearGradient2736)"
         id="path2307" />
      <path
         d="m 348.56879,162.7781 v -6.44906 h 12.89812 v 25.79625 h -6.44906 V 162.7781 Z m 6.44906,-12.89812 v -6.44907 h 6.44906 v 6.44907 z m 6.44906,32.24531 h 12.89813 v 6.44907 h -12.89813 z"
         style="font-family:scientifica;-inkscape-font-specification:scientifica;fill:url(#linearGradient2738)"
         id="path2309" />
      <path
         d="m 380.81413,188.57436 v -32.24532 h 19.34719 v 6.44906 H 387.2632 v 25.79626 z m 25.79626,0 h -6.44907 V 162.7781 h 6.44907 z"
         style="font-family:scientifica;-inkscape-font-specification:scientifica;fill:url(#linearGradient2740)"
         id="path2311" />
      <path
         d="m 413.05949,149.87998 v -6.44907 h 32.24532 v 6.44907 h -12.89813 v 38.69438 h -6.44906 v -38.69438 z"
         style="font-family:scientifica;-inkscape-font-specification:scientifica;fill:url(#linearGradient2742)"
         id="path2313" />
      <path
         d="M 445.30486,182.12529 V 162.7781 h 6.44906 v 19.34719 z m 25.79625,0 h -6.44906 V 162.7781 h 6.44906 z m -19.34719,0 h 12.89813 v 6.44907 h -12.89813 z m 0,-19.34719 v -6.44906 h 12.89813 v 6.44906 z"
         style="font-family:scientifica;-inkscape-font-specification:scientifica;fill:url(#linearGradient2744)"
         id="path2315" />
      <path
         d="M 477.55022,182.12529 V 162.7781 h 6.44906 v 19.34719 z m 25.79625,0 h -6.44906 V 162.7781 h 6.44906 z m -19.34719,0 h 12.89813 v 6.44907 h -12.89813 z m 0,-19.34719 v -6.44906 h 12.89813 v 6.44906 z"
         style="font-family:scientifica;-inkscape-font-specification:scientifica;fill:url(#linearGradient2746)"
         id="path2317" />
      <path
         d="m 535.5918,182.12529 v 6.44907 h -12.89813 v -6.44907 z m -25.79625,-32.24531 v -6.44907 h 12.89812 v 38.69438 h -6.44906 v -32.24531 z"
         style="font-family:scientifica;-inkscape-font-specification:scientifica;fill:url(#linearGradient2748)"
         id="path2319" />
      <path
         d="m 542.04091,188.57436 v -6.44907 h 19.34719 v 6.44907 z m 0,-19.34719 v -6.44907 h 6.44906 v 6.44907 z m 6.44906,6.44906 v -6.44906 h 12.89813 v 6.44906 z m 0,-12.89813 v -6.44906 h 19.34719 v 6.44906 z m 12.89813,12.89813 h 6.44906 v 6.44906 h -6.44906 z"
         style="font-family:scientifica;-inkscape-font-specification:scientifica;fill:url(#linearGradient2750)"
         id="path2321" />
    </g>
  </g>
</svg>
